<svg width="20" height="20" viewBox="0 0 20 20" fill="none" xmlns="http://www.w3.org/2000/svg">
<path d="M16.6417 8.33331H3.30835V15C3.30835 17.5 4.14168 18.3333 6.64168 18.3333H13.3084C15.8084 18.3333 16.6417 17.5 16.6417 15V8.33331Z" stroke="#5B2C6F" stroke-width="1.5" stroke-miterlimit="10" stroke-linecap="round" stroke-linejoin="round"/>
<path d="M17.9166 5.83335V6.66669C17.9166 7.58335 17.475 8.33335 16.25 8.33335H3.74998C2.47498 8.33335 2.08331 7.58335 2.08331 6.66669V5.83335C2.08331 4.91669 2.47498 4.16669 3.74998 4.16669H16.25C17.475 4.16669 17.9166 4.91669 17.9166 5.83335Z" stroke="#5B2C6F" stroke-width="1.5" stroke-miterlimit="10" stroke-linecap="round" stroke-linejoin="round"/>
<path opacity="0.4" d="M9.69998 4.16668H5.09998C4.81665 3.85835 4.82498 3.38335 5.12498 3.08335L6.30832 1.90001C6.61665 1.59168 7.12498 1.59168 7.43332 1.90001L9.69998 4.16668Z" stroke="#5B2C6F" stroke-width="1.5" stroke-miterlimit="10" stroke-linecap="round" stroke-linejoin="round"/>
<path opacity="0.4" d="M14.8917 4.16668H10.2917L12.5584 1.90001C12.8667 1.59168 13.375 1.59168 13.6834 1.90001L14.8667 3.08335C15.1667 3.38335 15.175 3.85835 14.8917 4.16668Z" stroke="#5B2C6F" stroke-width="1.5" stroke-miterlimit="10" stroke-linecap="round" stroke-linejoin="round"/>
<path opacity="0.4" d="M7.45001 8.33331V12.6166C7.45001 13.2833 8.18335 13.675 8.74168 13.3166L9.52501 12.8C9.80835 12.6166 10.1667 12.6166 10.4417 12.8L11.1833 13.3C11.7333 13.6666 12.475 13.275 12.475 12.6083V8.33331H7.45001Z" stroke="#5B2C6F" stroke-width="1.5" stroke-miterlimit="10" stroke-linecap="round" stroke-linejoin="round"/>
</svg>
