<svg width="20" height="20" viewBox="0 0 20 20" fill="none" xmlns="http://www.w3.org/2000/svg">
<path d="M10 18.3334C14.6024 18.3334 18.3333 14.6024 18.3333 10C18.3333 5.39765 14.6024 1.66669 10 1.66669C5.39763 1.66669 1.66667 5.39765 1.66667 10C1.66667 14.6024 5.39763 18.3334 10 18.3334Z" stroke="#522864" stroke-width="1.5" stroke-linecap="round" stroke-linejoin="round"/>
<path opacity="0.4" d="M10.275 14.5417C10.125 14.5917 9.86666 14.5917 9.71666 14.5417C8.41666 14.1 5.5 12.2417 5.5 9.09167C5.5 7.7 6.61667 6.57501 8 6.57501C8.81667 6.57501 9.54166 6.96667 10 7.58334C10.45 6.97501 11.1833 6.57501 12 6.57501C13.3833 6.57501 14.5 7.7 14.5 9.09167C14.5 12.2417 11.5833 14.1 10.275 14.5417Z" fill="#522864" stroke="#522864" stroke-width="1.5" stroke-linecap="round" stroke-linejoin="round"/>
</svg>
