<svg width="20" height="20" viewBox="0 0 20 20" fill="none" xmlns="http://www.w3.org/2000/svg">
<path opacity="0.4" d="M14.998 5.96669C14.948 5.95836 14.8897 5.95836 14.8397 5.96669C13.6897 5.92502 12.773 4.98336 12.773 3.81669C12.773 2.62502 13.7314 1.66669 14.923 1.66669C16.1147 1.66669 17.073 2.63336 17.073 3.81669C17.0647 4.98336 16.148 5.92502 14.998 5.96669Z" fill="#522864" stroke="#522864" stroke-width="1.5" stroke-linecap="round" stroke-linejoin="round"/>
<g opacity="0.4">
<path d="M14.1396 12.0334C15.2813 12.225 16.5396 12.025 17.4229 11.4334C18.5979 10.65 18.5979 9.3667 17.4229 8.58337C16.5313 7.9917 15.2563 7.79169 14.1146 7.99169" fill="#522864"/>
<path d="M14.1396 12.0334C15.2813 12.225 16.5396 12.025 17.4229 11.4334C18.5979 10.65 18.5979 9.3667 17.4229 8.58337C16.5313 7.9917 15.2563 7.79169 14.1146 7.99169" stroke="#522864" stroke-width="1.5" stroke-linecap="round" stroke-linejoin="round"/>
</g>
<path opacity="0.4" d="M4.97292 5.96669C5.02292 5.95836 5.08125 5.95836 5.13125 5.96669C6.28125 5.92502 7.19792 4.98336 7.19792 3.81669C7.19792 2.62502 6.23959 1.66669 5.04792 1.66669C3.85625 1.66669 2.89792 2.63336 2.89792 3.81669C2.90625 4.98336 3.82292 5.92502 4.97292 5.96669Z" fill="#522864" stroke="#522864" stroke-width="1.5" stroke-linecap="round" stroke-linejoin="round"/>
<g opacity="0.4">
<path d="M5.83124 12.0334C4.68957 12.225 3.43124 12.025 2.54791 11.4334C1.37291 10.65 1.37291 9.3667 2.54791 8.58337C3.43957 7.9917 4.71457 7.79169 5.85624 7.99169" fill="#522864"/>
<path d="M5.83124 12.0334C4.68957 12.225 3.43124 12.025 2.54791 11.4334C1.37291 10.65 1.37291 9.3667 2.54791 8.58337C3.43957 7.9917 4.71457 7.79169 5.85624 7.99169" stroke="#522864" stroke-width="1.5" stroke-linecap="round" stroke-linejoin="round"/>
</g>
<path d="M9.99999 12.1917C9.94999 12.1833 9.89166 12.1833 9.84166 12.1917C8.69166 12.15 7.77499 11.2083 7.77499 10.0417C7.77499 8.85 8.73333 7.89166 9.92499 7.89166C11.1167 7.89166 12.075 8.85833 12.075 10.0417C12.0667 11.2083 11.15 12.1583 9.99999 12.1917Z" fill="#522864" stroke="#522864" stroke-width="1.5" stroke-linecap="round" stroke-linejoin="round"/>
<path d="M7.57501 14.8167C6.40001 15.6 6.40001 16.8833 7.57501 17.6667C8.90834 18.5583 11.0917 18.5583 12.425 17.6667C13.6 16.8833 13.6 15.6 12.425 14.8167C11.1 13.9333 8.90834 13.9333 7.57501 14.8167Z" stroke="#522864" stroke-width="1.5" stroke-linecap="round" stroke-linejoin="round"/>
</svg>
